<mxfile host="Electron" modified="2023-05-20T14:48:46.704Z" agent="Mozilla/5.0 (Windows NT 10.0; Win64; x64) AppleWebKit/537.36 (KHTML, like Gecko) draw.io/21.2.1 Chrome/112.0.5615.87 Electron/24.1.2 Safari/537.36" etag="UXb2i9Vyj5FFPSr7WsfV" version="21.2.1" type="device">
  <diagram name="第 1 页" id="nyTj76HKbVIqBwnirb--">
    <mxGraphModel dx="1044" dy="357" grid="0" gridSize="10" guides="1" tooltips="1" connect="1" arrows="1" fold="1" page="0" pageScale="1" pageWidth="827" pageHeight="1169" math="0" shadow="0">
      <root>
        <mxCell id="0" />
        <mxCell id="1" parent="0" />
        <mxCell id="lcqmhPUzpi9VmW5lEyf--4" value="记录" style="rounded=0;whiteSpace=wrap;html=1;strokeColor=#0F8B8D;fontSize=16;fontColor=#143642;fillColor=#FAE5C7;labelBackgroundColor=none;" vertex="1" parent="1">
          <mxGeometry x="225" y="400" width="120" height="60" as="geometry" />
        </mxCell>
        <mxCell id="lcqmhPUzpi9VmW5lEyf--5" value="结果" style="ellipse;whiteSpace=wrap;html=1;strokeColor=#0F8B8D;fontSize=16;fontColor=#143642;fillColor=#FAE5C7;labelBackgroundColor=none;" vertex="1" parent="1">
          <mxGeometry x="395" y="490" width="80" height="60" as="geometry" />
        </mxCell>
        <mxCell id="lcqmhPUzpi9VmW5lEyf--6" value="标记" style="ellipse;whiteSpace=wrap;html=1;strokeColor=#0F8B8D;fontSize=16;fontColor=#143642;fillColor=#FAE5C7;labelBackgroundColor=none;" vertex="1" parent="1">
          <mxGeometry x="455" y="400" width="80" height="60" as="geometry" />
        </mxCell>
        <mxCell id="lcqmhPUzpi9VmW5lEyf--7" value="创建时间" style="ellipse;whiteSpace=wrap;html=1;strokeColor=#0F8B8D;fontSize=16;fontColor=#143642;fillColor=#FAE5C7;labelBackgroundColor=none;" vertex="1" parent="1">
          <mxGeometry x="245" y="530" width="80" height="60" as="geometry" />
        </mxCell>
        <mxCell id="lcqmhPUzpi9VmW5lEyf--8" value="状态" style="ellipse;whiteSpace=wrap;html=1;strokeColor=#0F8B8D;fontSize=16;fontColor=#143642;fillColor=#FAE5C7;labelBackgroundColor=none;" vertex="1" parent="1">
          <mxGeometry x="95" y="490" width="80" height="60" as="geometry" />
        </mxCell>
        <mxCell id="lcqmhPUzpi9VmW5lEyf--9" value="url" style="ellipse;whiteSpace=wrap;html=1;strokeColor=#0F8B8D;fontSize=16;fontColor=#143642;fillColor=#FAE5C7;labelBackgroundColor=none;" vertex="1" parent="1">
          <mxGeometry x="45" y="400" width="80" height="60" as="geometry" />
        </mxCell>
        <mxCell id="lcqmhPUzpi9VmW5lEyf--10" value="名称" style="ellipse;whiteSpace=wrap;html=1;strokeColor=#0F8B8D;fontSize=16;fontColor=#143642;fillColor=#FAE5C7;labelBackgroundColor=none;" vertex="1" parent="1">
          <mxGeometry x="95" y="320" width="80" height="60" as="geometry" />
        </mxCell>
        <mxCell id="lcqmhPUzpi9VmW5lEyf--11" value="ID" style="ellipse;whiteSpace=wrap;html=1;strokeColor=#0F8B8D;fontSize=16;fontColor=#143642;fillColor=#FAE5C7;labelBackgroundColor=none;" vertex="1" parent="1">
          <mxGeometry x="245" y="270" width="80" height="60" as="geometry" />
        </mxCell>
        <mxCell id="lcqmhPUzpi9VmW5lEyf--12" value="经纬度" style="ellipse;whiteSpace=wrap;html=1;strokeColor=#0F8B8D;fontSize=16;fontColor=#143642;fillColor=#FAE5C7;labelBackgroundColor=none;" vertex="1" parent="1">
          <mxGeometry x="395" y="310" width="80" height="60" as="geometry" />
        </mxCell>
        <mxCell id="lcqmhPUzpi9VmW5lEyf--13" value="" style="endArrow=none;html=1;rounded=0;strokeColor=#A8201A;fontSize=12;fontColor=default;startSize=8;endSize=8;fillColor=#FAE5C7;curved=1;entryX=0.5;entryY=1;entryDx=0;entryDy=0;exitX=0.5;exitY=0;exitDx=0;exitDy=0;labelBackgroundColor=none;" edge="1" parent="1" source="lcqmhPUzpi9VmW5lEyf--4" target="lcqmhPUzpi9VmW5lEyf--11">
          <mxGeometry width="50" height="50" relative="1" as="geometry">
            <mxPoint x="155" y="480" as="sourcePoint" />
            <mxPoint x="205" y="430" as="targetPoint" />
          </mxGeometry>
        </mxCell>
        <mxCell id="lcqmhPUzpi9VmW5lEyf--14" value="" style="endArrow=none;html=1;rounded=0;strokeColor=#A8201A;fontSize=12;fontColor=default;startSize=8;endSize=8;fillColor=#FAE5C7;curved=1;entryX=0.5;entryY=1;entryDx=0;entryDy=0;exitX=1;exitY=0;exitDx=0;exitDy=0;labelBackgroundColor=none;" edge="1" parent="1" source="lcqmhPUzpi9VmW5lEyf--4" target="lcqmhPUzpi9VmW5lEyf--12">
          <mxGeometry width="50" height="50" relative="1" as="geometry">
            <mxPoint x="155" y="480" as="sourcePoint" />
            <mxPoint x="205" y="430" as="targetPoint" />
          </mxGeometry>
        </mxCell>
        <mxCell id="lcqmhPUzpi9VmW5lEyf--15" value="" style="endArrow=none;html=1;rounded=0;strokeColor=#A8201A;fontSize=12;fontColor=default;startSize=8;endSize=8;fillColor=#FAE5C7;curved=1;entryX=0.5;entryY=1;entryDx=0;entryDy=0;exitX=0;exitY=0;exitDx=0;exitDy=0;labelBackgroundColor=none;" edge="1" parent="1" source="lcqmhPUzpi9VmW5lEyf--4" target="lcqmhPUzpi9VmW5lEyf--10">
          <mxGeometry width="50" height="50" relative="1" as="geometry">
            <mxPoint x="155" y="480" as="sourcePoint" />
            <mxPoint x="205" y="430" as="targetPoint" />
          </mxGeometry>
        </mxCell>
        <mxCell id="lcqmhPUzpi9VmW5lEyf--16" value="" style="endArrow=none;html=1;rounded=0;strokeColor=#A8201A;fontSize=12;fontColor=default;startSize=8;endSize=8;fillColor=#FAE5C7;curved=1;entryX=0;entryY=0.5;entryDx=0;entryDy=0;exitX=1;exitY=0.5;exitDx=0;exitDy=0;labelBackgroundColor=none;" edge="1" parent="1" source="lcqmhPUzpi9VmW5lEyf--9" target="lcqmhPUzpi9VmW5lEyf--4">
          <mxGeometry width="50" height="50" relative="1" as="geometry">
            <mxPoint x="155" y="480" as="sourcePoint" />
            <mxPoint x="205" y="430" as="targetPoint" />
          </mxGeometry>
        </mxCell>
        <mxCell id="lcqmhPUzpi9VmW5lEyf--17" value="" style="endArrow=none;html=1;rounded=0;strokeColor=#A8201A;fontSize=12;fontColor=default;startSize=8;endSize=8;fillColor=#FAE5C7;curved=1;entryX=0;entryY=0.5;entryDx=0;entryDy=0;exitX=1;exitY=0.5;exitDx=0;exitDy=0;labelBackgroundColor=none;" edge="1" parent="1" source="lcqmhPUzpi9VmW5lEyf--4" target="lcqmhPUzpi9VmW5lEyf--6">
          <mxGeometry width="50" height="50" relative="1" as="geometry">
            <mxPoint x="155" y="480" as="sourcePoint" />
            <mxPoint x="205" y="430" as="targetPoint" />
          </mxGeometry>
        </mxCell>
        <mxCell id="lcqmhPUzpi9VmW5lEyf--18" value="" style="endArrow=none;html=1;rounded=0;strokeColor=#A8201A;fontSize=12;fontColor=default;startSize=8;endSize=8;fillColor=#FAE5C7;curved=1;entryX=0;entryY=1;entryDx=0;entryDy=0;exitX=1;exitY=0.5;exitDx=0;exitDy=0;labelBackgroundColor=none;" edge="1" parent="1" source="lcqmhPUzpi9VmW5lEyf--8" target="lcqmhPUzpi9VmW5lEyf--4">
          <mxGeometry width="50" height="50" relative="1" as="geometry">
            <mxPoint x="155" y="480" as="sourcePoint" />
            <mxPoint x="205" y="430" as="targetPoint" />
          </mxGeometry>
        </mxCell>
        <mxCell id="lcqmhPUzpi9VmW5lEyf--19" value="" style="endArrow=none;html=1;rounded=0;strokeColor=#A8201A;fontSize=12;fontColor=default;startSize=8;endSize=8;fillColor=#FAE5C7;curved=1;entryX=0.5;entryY=1;entryDx=0;entryDy=0;exitX=0.5;exitY=0;exitDx=0;exitDy=0;labelBackgroundColor=none;" edge="1" parent="1" source="lcqmhPUzpi9VmW5lEyf--7" target="lcqmhPUzpi9VmW5lEyf--4">
          <mxGeometry width="50" height="50" relative="1" as="geometry">
            <mxPoint x="155" y="480" as="sourcePoint" />
            <mxPoint x="205" y="430" as="targetPoint" />
          </mxGeometry>
        </mxCell>
        <mxCell id="lcqmhPUzpi9VmW5lEyf--20" value="" style="endArrow=none;html=1;rounded=0;strokeColor=#A8201A;fontSize=12;fontColor=default;startSize=8;endSize=8;fillColor=#FAE5C7;curved=1;entryX=1;entryY=1;entryDx=0;entryDy=0;exitX=0;exitY=0;exitDx=0;exitDy=0;labelBackgroundColor=none;" edge="1" parent="1" source="lcqmhPUzpi9VmW5lEyf--5" target="lcqmhPUzpi9VmW5lEyf--4">
          <mxGeometry width="50" height="50" relative="1" as="geometry">
            <mxPoint x="155" y="480" as="sourcePoint" />
            <mxPoint x="205" y="430" as="targetPoint" />
          </mxGeometry>
        </mxCell>
      </root>
    </mxGraphModel>
  </diagram>
</mxfile>
